<?xml version="1.0" standalone="no"?>
<!DOCTYPE svg PUBLIC "-//W3C//DTD SVG 20010904//EN"
 "http://www.w3.org/TR/2001/REC-SVG-20010904/DTD/svg10.dtd">
<svg version="1.0" xmlns="http://www.w3.org/2000/svg"
 width="600.000000pt" height="60.000000pt" viewBox="0 0 600.000000 60.000000"
 preserveAspectRatio="xMidYMid meet">

<g transform="translate(0.000000,60.000000) scale(0.100000,-0.100000)"
fill="#000000" stroke="none">
<path d="M3850 420 c0 -16 -7 -20 -30 -20 -16 0 -30 -4 -30 -10 0 -6 43 -10
110 -10 67 0 110 4 110 10 0 6 -13 10 -30 10 -23 0 -30 4 -30 20 0 17 -7 20
-50 20 -43 0 -50 -3 -50 -20z m80 -10 c0 -5 -13 -10 -30 -10 -16 0 -30 5 -30
10 0 6 14 10 30 10 17 0 30 -4 30 -10z"/>
<path d="M5050 420 c0 -16 -7 -20 -30 -20 -16 0 -30 -4 -30 -10 0 -6 43 -10
110 -10 67 0 110 4 110 10 0 6 -13 10 -30 10 -23 0 -30 4 -30 20 0 17 -7 20
-50 20 -43 0 -50 -3 -50 -20z m80 -10 c0 -5 -13 -10 -30 -10 -16 0 -30 5 -30
10 0 6 14 10 30 10 17 0 30 -4 30 -10z"/>
<path d="M3392 417 c-10 -11 -9 -17 3 -27 24 -20 45 4 24 26 -14 13 -17 13
-27 1z"/>
<path d="M4592 417 c-10 -11 -9 -17 3 -27 24 -20 45 4 24 26 -14 13 -17 13
-27 1z"/>
<path d="M360 402 c0 -23 -140 -162 -163 -162 -12 0 -17 -8 -17 -30 0 -27 3
-30 30 -30 22 0 30 5 30 17 0 23 139 163 162 163 13 0 18 8 18 30 0 27 -3 30
-30 30 -22 0 -30 -5 -30 -18z m40 -12 c0 -5 -4 -10 -10 -10 -5 0 -10 5 -10 10
0 6 5 10 10 10 6 0 10 -4 10 -10z m-180 -180 c0 -5 -4 -10 -10 -10 -5 0 -10 5
-10 10 0 6 5 10 10 10 6 0 10 -4 10 -10z"/>
<path d="M811 366 l-52 -53 36 -67 c41 -74 28 -70 144 -47 38 7 43 17 55 107
l6 50 -37 18 c-104 50 -94 51 -152 -8z"/>
<path d="M5652 404 c-84 -43 -82 -168 4 -209 95 -45 194 43 161 142 -22 67
-101 99 -165 67z m115 -26 c64 -52 37 -159 -42 -174 -110 -20 -158 128 -60
185 24 13 80 7 102 -11z"/>
<path d="M2055 401 c-40 -18 -60 -51 -60 -102 0 -40 5 -54 28 -76 23 -23 36
-28 77 -28 70 0 105 35 105 105 0 40 -5 55 -26 76 -28 28 -89 40 -124 25z"/>
<path d="M2639 381 c-46 -46 -33 -114 31 -176 l30 -29 30 29 c35 34 60 83 60
120 0 38 -50 85 -90 85 -22 0 -41 -9 -61 -29z m96 -51 c0 -33 -2 -35 -35 -35
-29 0 -36 4 -38 23 -6 40 5 54 40 50 30 -3 33 -6 33 -38z"/>
<path d="M1400 300 l0 -100 100 0 100 0 0 100 0 100 -100 0 -100 0 0 -100z"/>
<path d="M3200 380 c-16 -16 -20 -33 -20 -90 0 -95 15 -110 110 -110 90 0 110
17 110 91 0 44 -2 50 -14 39 -8 -6 -16 -30 -18 -53 l-3 -42 -75 0 -75 0 -3 63
c-4 76 7 92 58 92 21 0 43 7 50 15 11 13 5 15 -44 15 -43 0 -61 -5 -76 -20z"/>
<path d="M4400 380 c-16 -16 -20 -33 -20 -90 0 -95 15 -110 110 -110 90 0 110
17 110 91 0 44 -2 50 -14 39 -8 -6 -16 -30 -18 -53 l-3 -42 -75 0 -75 0 -3 63
c-4 76 7 92 58 92 21 0 43 7 50 15 11 13 5 15 -44 15 -43 0 -61 -5 -76 -20z"/>
<path d="M3312 337 c-41 -42 -55 -77 -29 -77 7 0 34 22 60 48 37 37 45 50 35
60 -17 17 -20 16 -66 -31z"/>
<path d="M4512 337 c-41 -42 -55 -77 -29 -77 7 0 34 22 60 48 37 37 45 50 35
60 -17 17 -20 16 -66 -31z"/>
<path d="M3810 270 l0 -90 90 0 90 0 0 90 0 90 -90 0 -90 0 0 -90z m40 0 c0
-40 -4 -70 -10 -70 -6 0 -10 30 -10 70 0 40 4 70 10 70 6 0 10 -30 10 -70z
m40 0 c0 -40 -4 -70 -10 -70 -6 0 -10 30 -10 70 0 40 4 70 10 70 6 0 10 -30
10 -70z m40 0 c0 -40 -4 -70 -10 -70 -6 0 -10 30 -10 70 0 40 4 70 10 70 6 0
10 -30 10 -70z m40 0 c0 -40 -4 -70 -10 -70 -6 0 -10 30 -10 70 0 40 4 70 10
70 6 0 10 -30 10 -70z"/>
<path d="M5010 270 l0 -90 90 0 90 0 0 90 0 90 -90 0 -90 0 0 -90z m40 0 c0
-40 -4 -70 -10 -70 -6 0 -10 30 -10 70 0 40 4 70 10 70 6 0 10 -30 10 -70z
m40 0 c0 -40 -4 -70 -10 -70 -6 0 -10 30 -10 70 0 40 4 70 10 70 6 0 10 -30
10 -70z m40 0 c0 -40 -4 -70 -10 -70 -6 0 -10 30 -10 70 0 40 4 70 10 70 6 0
10 -30 10 -70z m40 0 c0 -40 -4 -70 -10 -70 -6 0 -10 30 -10 70 0 40 4 70 10
70 6 0 10 -30 10 -70z"/>
</g>
</svg>
